#usda 1.0
# From meshes/collision/end_effectors/galbot_gripper/link3_right/*.stl.
# Side-specific coordinates avoid negative scale on PhysX colliders.
(
    metersPerUnit = 1
    upAxis = "Z"
)

def Mesh "link_3_right_collision_01" (
    prepend apiSchemas = ["PhysicsCollisionAPI", "PhysicsMeshCollisionAPI"]
)
{
    int[] faceVertexCounts = [3, 3, 3, 3, 3, 3, 3, 3, 3, 3, 3, 3, 3, 3, 3, 3, 3, 3, 3, 3]
    int[] faceVertexIndices = [0, 1, 2, 3, 4, 5, 6, 7, 8, 9, 10, 11, 12, 13, 14, 15, 16, 17, 18, 19, 20, 21, 22, 23, 24, 25, 26, 27, 28, 29, 30, 31, 32, 33, 34, 35, 36, 37, 38, 39, 40, 41, 42, 43, 44, 45, 46, 47, 48, 49, 50, 51, 52, 53, 54, 55, 56, 57, 58, 59]
    uniform token physics:approximation = "convexHull"
    point3f[] points = [(0.0055, 0.006, 0.01015), (0.0055, -0.0062, 0.01015), (0.0055, -0.0062, -0.010067), (0.0055, 0.006, 0.01015), (0.0055, -0.0062, -0.010067), (0.0055, 0.006, -0.010067), (0.0055, 0.006, -0.010067), (0.0055, -0.0062, -0.010067), (0.0315, -0.0062, -0.010067), (0.0055, 0.006, -0.010067), (0.0315, -0.0062, -0.010067), (0.0315, 0.006, -0.010067), (0.0315, -0.0062, 0.01015), (0.0315, 0.006, 0.01015), (0.037266135, 0.0004069367, 0.008964734), (0.0315, -0.0062, 0.01015), (0.037266135, 0.0004069367, 0.008964734), (0.037266135, -0.0061999997, 0.008964734), (0.0315, 0.006, 0.01015), (0.0315, -0.0062, 0.01015), (0.0055, -0.0062, 0.01015), (0.0315, 0.006, 0.01015), (0.0055, -0.0062, 0.01015), (0.0055, 0.006, 0.01015), (0.0055, 0.006, -0.010067), (0.0315, 0.006, -0.010067), (0.0315, 0.006, 0.01015), (0.0055, 0.006, -0.010067), (0.0315, 0.006, 0.01015), (0.0055, 0.006, 0.01015), (0.0315, -0.0062, -0.010067), (0.0055, -0.0062, -0.010067), (0.0055, -0.0062, 0.01015), (0.0315, -0.0062, -0.010067), (0.0055, -0.0062, 0.01015), (0.0315, -0.0062, 0.01015), (0.037266135, 0.0004069367, -0.008881734), (0.037266135, -0.0061999997, -0.008881734), (0.037266135, -0.0061999997, 0.008964734), (0.037266135, 0.0004069367, -0.008881734), (0.037266135, -0.0061999997, 0.008964734), (0.037266135, 0.0004069367, 0.008964734), (0.0315, 0.006, 0.01015), (0.0315, 0.006, -0.010067), (0.037266135, 0.0004069367, -0.008881734), (0.0315, 0.006, 0.01015), (0.037266135, 0.0004069367, -0.008881734), (0.037266135, 0.0004069367, 0.008964734), (0.0315, -0.0062, -0.010067), (0.0315, -0.0062, 0.01015), (0.037266135, -0.0061999997, 0.008964734), (0.0315, -0.0062, -0.010067), (0.037266135, -0.0061999997, 0.008964734), (0.037266135, -0.0061999997, -0.008881734), (0.0315, 0.006, -0.010067), (0.0315, -0.0062, -0.010067), (0.037266135, -0.0061999997, -0.008881734), (0.0315, 0.006, -0.010067), (0.037266135, -0.0061999997, -0.008881734), (0.037266135, 0.0004069367, -0.008881734)]
    uniform token purpose = "guide"
    uniform token subdivisionScheme = "none"
}

def Mesh "link_3_right_collision_02" (
    prepend apiSchemas = ["PhysicsCollisionAPI", "PhysicsMeshCollisionAPI"]
)
{
    int[] faceVertexCounts = [3, 3, 3, 3, 3, 3, 3, 3, 3, 3, 3, 3, 3, 3, 3, 3, 3, 3, 3, 3, 3, 3, 3, 3, 3, 3, 3, 3, 3, 3, 3, 3, 3, 3, 3, 3, 3, 3, 3, 3]
    int[] faceVertexIndices = [0, 1, 2, 3, 4, 5, 6, 7, 8, 9, 10, 11, 12, 13, 14, 15, 16, 17, 18, 19, 20, 21, 22, 23, 24, 25, 26, 27, 28, 29, 30, 31, 32, 33, 34, 35, 36, 37, 38, 39, 40, 41, 42, 43, 44, 45, 46, 47, 48, 49, 50, 51, 52, 53, 54, 55, 56, 57, 58, 59, 60, 61, 62, 63, 64, 65, 66, 67, 68, 69, 70, 71, 72, 73, 74, 75, 76, 77, 78, 79, 80, 81, 82, 83, 84, 85, 86, 87, 88, 89, 90, 91, 92, 93, 94, 95, 96, 97, 98, 99, 100, 101, 102, 103, 104, 105, 106, 107, 108, 109, 110, 111, 112, 113, 114, 115, 116, 117, 118, 119]
    uniform token physics:approximation = "convexHull"
    point3f[] points = [(0.037266135, 0.00042217292, -0.008881734), (0.037266135, 0.00042217292, 0.0089217415), (0.037266135, -0.0062, 0.0089217415), (0.037266135, 0.00042217292, -0.008881734), (0.037266135, -0.0062, 0.0089217415), (0.037266135, -0.0062, -0.008881734), (0.0655224, -0.0061999997, 0.00004150049), (0.0655224, -0.005609012, 0.00004150049), (0.065271445, -0.0055554467, -0.0012937592), (0.0655224, -0.0061999997, 0.00004150049), (0.065271445, -0.0055554467, -0.0012937592), (0.065271445, -0.0061999997, -0.0012937592), (0.065271445, -0.0061999997, -0.0012937592), (0.065271445, -0.0055554467, -0.0012937592), (0.06455679, -0.005402907, -0.0025245543), (0.065271445, -0.0061999997, -0.0012937592), (0.06455679, -0.005402907, -0.0025245543), (0.06455679, -0.0061999997, -0.0025245543), (0.06455679, -0.0061999997, -0.0025245543), (0.06455679, -0.005402907, -0.0025245543), (0.06348723, -0.005174613, -0.003463507), (0.06455679, -0.0061999997, -0.0025245543), (0.06348723, -0.005174613, -0.003463507), (0.06348723, -0.0061999997, -0.003463507), (0.06348723, -0.0061999997, -0.003463507), (0.06348723, -0.005174613, -0.003463507), (0.062225595, -0.004905323, -0.003967671), (0.06348723, -0.0061999997, -0.003463507), (0.062225595, -0.004905323, -0.003967671), (0.062225595, -0.0061999997, -0.003967671), (0.06222465, -0.0061999997, 0.004045841), (0.06222465, -0.004905121, 0.0040458413), (0.06348664, -0.005174489, 0.003543526), (0.06222465, -0.0061999997, 0.004045841), (0.06348664, -0.005174489, 0.003543526), (0.06348664, -0.0061999997, 0.0035435257), (0.06348664, -0.0061999997, 0.0035435257), (0.06348664, -0.005174489, 0.003543526), (0.06455651, -0.0054028477, 0.0026061404), (0.06348664, -0.0061999997, 0.0035435257), (0.06455651, -0.0054028477, 0.0026061404), (0.06455651, -0.0061999997, 0.0026061404), (0.06455651, -0.0061999997, 0.0026061404), (0.06455651, -0.0054028477, 0.0026061404), (0.06527138, -0.0055554323, 0.0013763924), (0.06455651, -0.0061999997, 0.0026061404), (0.06527138, -0.0055554323, 0.0013763924), (0.06527138, -0.0061999997, 0.0013763924), (0.06527138, -0.0061999997, 0.0013763924), (0.06527138, -0.0055554323, 0.0013763924), (0.0655224, -0.005609012, 0.00004150049), (0.06527138, -0.0061999997, 0.0013763924), (0.0655224, -0.005609012, 0.00004150049), (0.0655224, -0.0061999997, 0.00004150049), (0.037266135, 0.00042217292, -0.008881734), (0.037266135, -0.0062, -0.008881734), (0.062225595, -0.0061999997, -0.003967671), (0.037266135, 0.00042217292, -0.008881734), (0.062225595, -0.0061999997, -0.003967671), (0.062225595, -0.004905323, -0.003967671), (0.065271445, -0.0061999997, -0.0012937592), (0.06527138, -0.0061999997, 0.0013763924), (0.0655224, -0.0061999997, 0.00004150049), (0.06527138, -0.0055554323, 0.0013763924), (0.065271445, -0.0055554467, -0.0012937592), (0.0655224, -0.005609012, 0.00004150049), (0.037266135, -0.0062, 0.0089217415), (0.037266135, 0.00042217292, 0.0089217415), (0.06222465, -0.004905121, 0.0040458413), (0.037266135, -0.0062, 0.0089217415), (0.06222465, -0.004905121, 0.0040458413), (0.06222465, -0.0061999997, 0.004045841), (0.037266135, -0.0062, -0.008881734), (0.037266135, -0.0062, 0.0089217415), (0.06222465, -0.0061999997, 0.004045841), (0.037266135, -0.0062, -0.008881734), (0.06222465, -0.0061999997, 0.004045841), (0.062225595, -0.0061999997, -0.003967671), (0.037266135, 0.00042217292, 0.0089217415), (0.037266135, 0.00042217292, -0.008881734), (0.062225595, -0.004905323, -0.003967671), (0.037266135, 0.00042217292, 0.0089217415), (0.062225595, -0.004905323, -0.003967671), (0.06222465, -0.004905121, 0.0040458413), (0.062225595, -0.0061999997, -0.003967671), (0.06222465, -0.0061999997, 0.004045841), (0.06348664, -0.0061999997, 0.0035435257), (0.062225595, -0.0061999997, -0.003967671), (0.06348664, -0.0061999997, 0.0035435257), (0.06348723, -0.0061999997, -0.003463507), (0.06348723, -0.0061999997, -0.003463507), (0.06348664, -0.0061999997, 0.0035435257), (0.06455651, -0.0061999997, 0.0026061404), (0.06348723, -0.0061999997, -0.003463507), (0.06455651, -0.0061999997, 0.0026061404), (0.06455679, -0.0061999997, -0.0025245543), (0.06455679, -0.0061999997, -0.0025245543), (0.06455651, -0.0061999997, 0.0026061404), (0.06527138, -0.0061999997, 0.0013763924), (0.06455679, -0.0061999997, -0.0025245543), (0.06527138, -0.0061999997, 0.0013763924), (0.065271445, -0.0061999997, -0.0012937592), (0.06222465, -0.004905121, 0.0040458413), (0.062225595, -0.004905323, -0.003967671), (0.06348723, -0.005174613, -0.003463507), (0.06222465, -0.004905121, 0.0040458413), (0.06348723, -0.005174613, -0.003463507), (0.06348664, -0.005174489, 0.003543526), (0.06348664, -0.005174489, 0.003543526), (0.06348723, -0.005174613, -0.003463507), (0.06455679, -0.005402907, -0.0025245543), (0.06348664, -0.005174489, 0.003543526), (0.06455679, -0.005402907, -0.0025245543), (0.06455651, -0.0054028477, 0.0026061404), (0.06455651, -0.0054028477, 0.0026061404), (0.06455679, -0.005402907, -0.0025245543), (0.065271445, -0.0055554467, -0.0012937592), (0.06455651, -0.0054028477, 0.0026061404), (0.065271445, -0.0055554467, -0.0012937592), (0.06527138, -0.0055554323, 0.0013763924)]
    uniform token purpose = "guide"
    uniform token subdivisionScheme = "none"
}

def Mesh "link_3_right_collision_03" (
    prepend apiSchemas = ["PhysicsCollisionAPI", "PhysicsMeshCollisionAPI"]
)
{
    int[] faceVertexCounts = [3, 3, 3, 3, 3, 3, 3, 3, 3, 3, 3, 3, 3, 3, 3, 3, 3, 3, 3, 3, 3, 3, 3, 3, 3, 3, 3, 3, 3, 3, 3, 3, 3, 3, 3, 3, 3, 3, 3, 3, 3, 3, 3, 3, 3, 3, 3, 3, 3, 3, 3, 3]
    int[] faceVertexIndices = [0, 1, 2, 3, 4, 5, 6, 7, 8, 9, 10, 11, 12, 13, 14, 15, 16, 17, 18, 19, 20, 21, 22, 23, 24, 25, 26, 27, 28, 29, 30, 31, 32, 33, 34, 35, 36, 37, 38, 39, 40, 41, 42, 43, 44, 45, 46, 47, 48, 49, 50, 51, 52, 53, 54, 55, 56, 57, 58, 59, 60, 61, 62, 63, 64, 65, 66, 67, 68, 69, 70, 71, 72, 73, 74, 75, 76, 77, 78, 79, 80, 81, 82, 83, 84, 85, 86, 87, 88, 89, 90, 91, 92, 93, 94, 95, 96, 97, 98, 99, 100, 101, 102, 103, 104, 105, 106, 107, 108, 109, 110, 111, 112, 113, 114, 115, 116, 117, 118, 119, 120, 121, 122, 123, 124, 125, 126, 127, 128, 129, 130, 131, 132, 133, 134, 135, 136, 137, 138, 139, 140, 141, 142, 143, 144, 145, 146, 147, 148, 149, 150, 151, 152, 153, 154, 155]
    uniform token physics:approximation = "convexHull"
    point3f[] points = [(-0.0061415415, 0.017224204, -0.0050006183), (-0.0061415415, 0.017224204, 0.0050007175), (-0.0083063645, 0.015766233, 0.0050007175), (-0.0061415415, 0.017224204, -0.0050006183), (-0.0083063645, 0.015766233, 0.0050007175), (-0.0083063645, 0.015766233, -0.0050006183), (-0.0083063645, 0.015766233, -0.0050006183), (-0.0083063645, 0.015766233, 0.0050007175), (-0.009456553, 0.013476077, 0.0050007175), (-0.0083063645, 0.015766233, -0.0050006183), (-0.009456553, 0.013476077, 0.0050007175), (-0.009456553, 0.013476077, -0.0050006183), (-0.009456553, 0.013476077, -0.0050006183), (-0.009456553, 0.013476077, 0.0050007175), (-0.009283913, 0.010967379, 0.0050007175), (-0.009456553, 0.013476077, -0.0050006183), (-0.009283913, 0.010967379, 0.0050007175), (-0.009283913, 0.010967379, -0.0050006183), (0.0016586701, -0.0047249077, 0.0050007175), (0.0016586697, -0.0047249077, -0.0050006183), (-0.000940725, -0.0049600312, -0.0050006183), (0.0016586701, -0.0047249077, 0.0050007175), (-0.000940725, -0.0049600312, -0.0050006183), (-0.0009407245, -0.0049600312, 0.0050007175), (-0.0009407245, -0.0049600312, 0.0050007175), (-0.000940725, -0.0049600312, -0.0050006183), (-0.0032781865, -0.0039093047, -0.0050006183), (-0.0009407245, -0.0049600312, 0.0050007175), (-0.0032781865, -0.0039093047, -0.0050006183), (-0.0032781865, -0.0039093047, 0.0050007175), (-0.0032781865, -0.0039093047, 0.0050007175), (-0.0032781865, -0.0039093047, -0.0050006183), (-0.0047273934, -0.0018542707, -0.0050006183), (-0.0032781865, -0.0039093047, 0.0050007175), (-0.0047273934, -0.0018542707, -0.0050006183), (-0.0047273934, -0.0018542707, 0.0050007175), (-0.0061415415, 0.017224204, 0.0050007175), (-0.0061415415, 0.017224204, -0.0050006183), (-0.0035421469, 0.017459327, -0.0050006183), (-0.0061415415, 0.017224204, 0.0050007175), (-0.0035421469, 0.017459327, -0.0050006183), (-0.0035421464, 0.017459327, 0.0050007175), (-0.0035421464, 0.017459327, 0.0050007175), (-0.0035421469, 0.017459327, -0.0050006183), (-0.0012046851, 0.0164086, -0.0050006183), (-0.0035421464, 0.017459327, 0.0050007175), (-0.0012046851, 0.0164086, -0.0050006183), (-0.0012046851, 0.0164086, 0.0050007175), (-0.0012046851, 0.0164086, 0.0050007175), (-0.0012046851, 0.0164086, -0.0050006183), (0.000244522, 0.014353567, -0.0050006183), (-0.0012046851, 0.0164086, 0.0050007175), (0.000244522, 0.014353567, -0.0050006183), (0.000244522, 0.014353567, 0.0050007175), (0.0016586697, -0.0047249077, -0.0050006183), (0.0016586701, -0.0047249077, 0.0050007175), (0.0038234931, -0.003266937, 0.0050007175), (0.0016586697, -0.0047249077, -0.0050006183), (0.0038234931, -0.003266937, 0.0050007175), (0.0038234927, -0.003266937, -0.0050006183), (0.0038234927, -0.003266937, -0.0050006183), (0.0038234931, -0.003266937, 0.0050007175), (0.0049736807, -0.0009767804, 0.0050007175), (0.0038234927, -0.003266937, -0.0050006183), (0.0049736807, -0.0009767804, 0.0050007175), (0.0049736807, -0.0009767804, -0.0050006183), (0.0049736807, -0.0009767804, -0.0050006183), (0.0049736807, -0.0009767804, 0.0050007175), (0.0048010414, 0.0015319176, 0.0050007175), (0.0049736807, -0.0009767804, -0.0050006183), (0.0048010414, 0.0015319176, 0.0050007175), (0.0048010414, 0.0015319176, -0.0050006183), (-0.009283913, 0.010967379, 0.0050007175), (-0.0047273934, -0.0018542707, 0.0050007175), (-0.0047273934, -0.0018542707, -0.0050006183), (-0.009283913, 0.010967379, 0.0050007175), (-0.0047273934, -0.0018542707, -0.0050006183), (-0.009283913, 0.010967379, -0.0050006183), (-0.0083063645, 0.015766233, 0.0050007175), (-0.0061415415, 0.017224204, 0.0050007175), (-0.0035421464, 0.017459327, 0.0050007175), (-0.0035421464, 0.017459327, 0.0050007175), (-0.0012046851, 0.0164086, 0.0050007175), (0.000244522, 0.014353567, 0.0050007175), (0.000244522, 0.014353567, 0.0050007175), (0.0048010414, 0.0015319176, 0.0050007175), (0.0049736807, -0.0009767804, 0.0050007175), (0.0049736807, -0.0009767804, 0.0050007175), (0.0038234931, -0.003266937, 0.0050007175), (0.0016586701, -0.0047249077, 0.0050007175), (0.0016586701, -0.0047249077, 0.0050007175), (-0.0009407245, -0.0049600312, 0.0050007175), (-0.0032781865, -0.0039093047, 0.0050007175), (-0.0032781865, -0.0039093047, 0.0050007175), (-0.0047273934, -0.0018542707, 0.0050007175), (-0.009283913, 0.010967379, 0.0050007175), (-0.009283913, 0.010967379, 0.0050007175), (-0.009456553, 0.013476077, 0.0050007175), (-0.0083063645, 0.015766233, 0.0050007175), (-0.0083063645, 0.015766233, 0.0050007175), (-0.0035421464, 0.017459327, 0.0050007175), (0.000244522, 0.014353567, 0.0050007175), (0.000244522, 0.014353567, 0.0050007175), (0.0049736807, -0.0009767804, 0.0050007175), (0.0016586701, -0.0047249077, 0.0050007175), (0.0016586701, -0.0047249077, 0.0050007175), (-0.0032781865, -0.0039093047, 0.0050007175), (-0.009283913, 0.010967379, 0.0050007175), (-0.009283913, 0.010967379, 0.0050007175), (-0.0083063645, 0.015766233, 0.0050007175), (0.000244522, 0.014353567, 0.0050007175), (0.000244522, 0.014353567, 0.0050007175), (0.0016586701, -0.0047249077, 0.0050007175), (-0.009283913, 0.010967379, 0.0050007175), (-0.0035421469, 0.017459327, -0.0050006183), (-0.0061415415, 0.017224204, -0.0050006183), (-0.0083063645, 0.015766233, -0.0050006183), (-0.0083063645, 0.015766233, -0.0050006183), (-0.009456553, 0.013476077, -0.0050006183), (-0.009283913, 0.010967379, -0.0050006183), (-0.009283913, 0.010967379, -0.0050006183), (-0.0047273934, -0.0018542707, -0.0050006183), (-0.0032781865, -0.0039093047, -0.0050006183), (-0.0032781865, -0.0039093047, -0.0050006183), (-0.000940725, -0.0049600312, -0.0050006183), (0.0016586697, -0.0047249077, -0.0050006183), (0.0016586697, -0.0047249077, -0.0050006183), (0.0038234927, -0.003266937, -0.0050006183), (0.0049736807, -0.0009767804, -0.0050006183), (0.0049736807, -0.0009767804, -0.0050006183), (0.0048010414, 0.0015319176, -0.0050006183), (0.000244522, 0.014353567, -0.0050006183), (0.000244522, 0.014353567, -0.0050006183), (-0.0012046851, 0.0164086, -0.0050006183), (-0.0035421469, 0.017459327, -0.0050006183), (-0.0035421469, 0.017459327, -0.0050006183), (-0.0083063645, 0.015766233, -0.0050006183), (-0.009283913, 0.010967379, -0.0050006183), (-0.009283913, 0.010967379, -0.0050006183), (-0.0032781865, -0.0039093047, -0.0050006183), (0.0016586697, -0.0047249077, -0.0050006183), (0.0016586697, -0.0047249077, -0.0050006183), (0.0049736807, -0.0009767804, -0.0050006183), (0.000244522, 0.014353567, -0.0050006183), (0.000244522, 0.014353567, -0.0050006183), (-0.0035421469, 0.017459327, -0.0050006183), (-0.009283913, 0.010967379, -0.0050006183), (-0.009283913, 0.010967379, -0.0050006183), (0.0016586697, -0.0047249077, -0.0050006183), (0.000244522, 0.014353567, -0.0050006183), (0.000244522, 0.014353567, -0.0050006183), (0.0048010414, 0.0015319176, -0.0050006183), (0.0048010414, 0.0015319176, 0.0050007175), (0.000244522, 0.014353567, -0.0050006183), (0.0048010414, 0.0015319176, 0.0050007175), (0.000244522, 0.014353567, 0.0050007175)]
    uniform token purpose = "guide"
    uniform token subdivisionScheme = "none"
}
